<?xml version="1.0" encoding="UTF-8" standalone="yes"?><svg xmlns="http://www.w3.org/2000/svg" xmlns:xlink="http://www.w3.org/1999/xlink" height="224.8px" style="width:632px;height:224px;" version="1.1" viewBox="0 0 632 224" width="632.8px"><defs><filter height="300%" id="f1" width="300%" x="-1" y="-1"><feGaussianBlur result="blurOut" stdDeviation="1.600000023841858"/><feColorMatrix in="blurOut" result="blurOut2" type="matrix" values="0 0 0 0 0 0 0 0 0 0 0 0 0 0 0 0 0 0 .4 0"/><feOffset dx="3.200000047683716" dy="3.200000047683716" in="blurOut2" result="blurOut3"/><feBlend in="SourceGraphic" in2="blurOut3" mode="normal"/></filter></defs><g><rect fill="#FEFECE" filter="url(#f1)" height="38.4" style="stroke: #A80036; stroke-width: 1.2000000178813934;" width="77.6" x="182" y="6.4"/><ellipse cx="194" cy="19.2" fill="#ADD1B2" rx="8.8" ry="8.8" style="stroke: #A80036; stroke-width: 0.800000011920929;"/><path d="M196.2125,15.9 Q196.3375,15.725 196.4875,15.6375 Q196.6375,15.55 196.8125,15.55 Q197.1125,15.55 197.3,15.7563 Q197.4875,15.9625 197.4875,16.45 L197.4875,17.6125 Q197.4875,18.1 197.3,18.3125 Q197.1125,18.525 196.8125,18.525 Q196.5375,18.525 196.375,18.3625 Q196.2125,18.2125 196.125,17.8 Q196.0875,17.5125 195.9375,17.3625 Q195.675,17.0625 195.1875,16.8875 Q194.7,16.7125 194.2,16.7125 Q193.5875,16.7125 193.0813,16.975 Q192.575,17.2375 192.1813,17.8375 Q191.7875,18.4375 191.7875,19.2625 L191.7875,20.1375 Q191.7875,21.125 192.5,21.7813 Q193.2125,22.4375 194.4875,22.4375 Q195.2375,22.4375 195.7625,22.2375 Q196.075,22.1125 196.4125,21.7625 Q196.625,21.55 196.7438,21.4875 Q196.8625,21.425 197.025,21.425 Q197.2875,21.425 197.4938,21.6313 Q197.7,21.8375 197.7,22.1125 Q197.7,22.3875 197.425,22.7125 Q197.025,23.175 196.3875,23.4375 Q195.525,23.8 194.4875,23.8 Q193.275,23.8 192.3125,23.3 Q191.525,22.9 190.975,22.0438 Q190.425,21.1875 190.425,20.1625 L190.425,19.2375 Q190.425,18.175 190.9188,17.2563 Q191.4125,16.3375 192.2875,15.8438 Q193.1625,15.35 194.15,15.35 Q194.7375,15.35 195.2563,15.4813 Q195.775,15.6125 196.2125,15.9 Z "/><text fill="#000000" font-family="sans-serif" font-size="9.6" lengthAdjust="spacingAndGlyphs" textLength="52" x="205.2" y="22.9875">EventTarget</text><line style="stroke: #A80036; stroke-width: 1.2000000178813934;" x1="182.8" x2="258.8" y1="32" y2="32"/><line style="stroke: #A80036; stroke-width: 1.2000000178813934;" x1="182.8" x2="258.8" y1="38.4" y2="38.4"/><rect fill="#FEFECE" filter="url(#f1)" height="38.4" style="stroke: #A80036; stroke-width: 1.2000000178813934;" width="112" x="48" y="92.8"/><ellipse cx="60" cy="105.6" fill="#ADD1B2" rx="8.8" ry="8.8" style="stroke: #A80036; stroke-width: 0.800000011920929;"/><path d="M62.2125,102.3 Q62.3375,102.125 62.4875,102.0375 Q62.6375,101.95 62.8125,101.95 Q63.1125,101.95 63.3,102.1563 Q63.4875,102.3625 63.4875,102.85 L63.4875,104.0125 Q63.4875,104.5 63.3,104.7125 Q63.1125,104.925 62.8125,104.925 Q62.5375,104.925 62.375,104.7625 Q62.2125,104.6125 62.125,104.2 Q62.0875,103.9125 61.9375,103.7625 Q61.675,103.4625 61.1875,103.2875 Q60.7,103.1125 60.2,103.1125 Q59.5875,103.1125 59.0813,103.375 Q58.575,103.6375 58.1813,104.2375 Q57.7875,104.8375 57.7875,105.6625 L57.7875,106.5375 Q57.7875,107.525 58.5,108.1813 Q59.2125,108.8375 60.4875,108.8375 Q61.2375,108.8375 61.7625,108.6375 Q62.075,108.5125 62.4125,108.1625 Q62.625,107.95 62.7438,107.8875 Q62.8625,107.825 63.025,107.825 Q63.2875,107.825 63.4938,108.0313 Q63.7,108.2375 63.7,108.5125 Q63.7,108.7875 63.425,109.1125 Q63.025,109.575 62.3875,109.8375 Q61.525,110.2 60.4875,110.2 Q59.275,110.2 58.3125,109.7 Q57.525,109.3 56.975,108.4438 Q56.425,107.5875 56.425,106.5625 L56.425,105.6375 Q56.425,104.575 56.9188,103.6563 Q57.4125,102.7375 58.2875,102.2438 Q59.1625,101.75 60.15,101.75 Q60.7375,101.75 61.2563,101.8813 Q61.775,102.0125 62.2125,102.3 Z "/><text fill="#000000" font-family="sans-serif" font-size="9.6" lengthAdjust="spacingAndGlyphs" textLength="86.4" x="71.2" y="109.3875">HTMLTrackElement</text><line style="stroke: #A80036; stroke-width: 1.2000000178813934;" x1="48.8" x2="159.2" y1="118.4" y2="118.4"/><line style="stroke: #A80036; stroke-width: 1.2000000178813934;" x1="48.8" x2="159.2" y1="124.8" y2="124.8"/><rect fill="#FEFECE" filter="url(#f1)" height="38.4" style="stroke: #A80036; stroke-width: 1.2000000178813934;" width="65.6" x="188" y="92.8"/><ellipse cx="200" cy="105.6" fill="#ADD1B2" rx="8.8" ry="8.8" style="stroke: #A80036; stroke-width: 0.800000011920929;"/><path d="M202.2125,102.3 Q202.3375,102.125 202.4875,102.0375 Q202.6375,101.95 202.8125,101.95 Q203.1125,101.95 203.3,102.1563 Q203.4875,102.3625 203.4875,102.85 L203.4875,104.0125 Q203.4875,104.5 203.3,104.7125 Q203.1125,104.925 202.8125,104.925 Q202.5375,104.925 202.375,104.7625 Q202.2125,104.6125 202.125,104.2 Q202.0875,103.9125 201.9375,103.7625 Q201.675,103.4625 201.1875,103.2875 Q200.7,103.1125 200.2,103.1125 Q199.5875,103.1125 199.0813,103.375 Q198.575,103.6375 198.1813,104.2375 Q197.7875,104.8375 197.7875,105.6625 L197.7875,106.5375 Q197.7875,107.525 198.5,108.1813 Q199.2125,108.8375 200.4875,108.8375 Q201.2375,108.8375 201.7625,108.6375 Q202.075,108.5125 202.4125,108.1625 Q202.625,107.95 202.7438,107.8875 Q202.8625,107.825 203.025,107.825 Q203.2875,107.825 203.4938,108.0313 Q203.7,108.2375 203.7,108.5125 Q203.7,108.7875 203.425,109.1125 Q203.025,109.575 202.3875,109.8375 Q201.525,110.2 200.4875,110.2 Q199.275,110.2 198.3125,109.7 Q197.525,109.3 196.975,108.4438 Q196.425,107.5875 196.425,106.5625 L196.425,105.6375 Q196.425,104.575 196.9188,103.6563 Q197.4125,102.7375 198.2875,102.2438 Q199.1625,101.75 200.15,101.75 Q200.7375,101.75 201.2563,101.8813 Q201.775,102.0125 202.2125,102.3 Z "/><text fill="#000000" font-family="sans-serif" font-size="9.6" lengthAdjust="spacingAndGlyphs" textLength="40" x="211.2" y="109.3875">TrackList</text><line style="stroke: #A80036; stroke-width: 1.2000000178813934;" x1="188.8" x2="252.8" y1="118.4" y2="118.4"/><line style="stroke: #A80036; stroke-width: 1.2000000178813934;" x1="188.8" x2="252.8" y1="124.8" y2="124.8"/><rect fill="#FEFECE" filter="url(#f1)" height="38.4" style="stroke: #A80036; stroke-width: 1.2000000178813934;" width="83.2" x="4.8" y="179.2"/><ellipse cx="16.8" cy="192" fill="#ADD1B2" rx="8.8" ry="8.8" style="stroke: #A80036; stroke-width: 0.800000011920929;"/><path d="M19.0125,188.7 Q19.1375,188.525 19.2875,188.4375 Q19.4375,188.35 19.6125,188.35 Q19.9125,188.35 20.1,188.5563 Q20.2875,188.7625 20.2875,189.25 L20.2875,190.4125 Q20.2875,190.9 20.1,191.1125 Q19.9125,191.325 19.6125,191.325 Q19.3375,191.325 19.175,191.1625 Q19.0125,191.0125 18.925,190.6 Q18.8875,190.3125 18.7375,190.1625 Q18.475,189.8625 17.9875,189.6875 Q17.5,189.5125 17,189.5125 Q16.3875,189.5125 15.8813,189.775 Q15.375,190.0375 14.9813,190.6375 Q14.5875,191.2375 14.5875,192.0625 L14.5875,192.9375 Q14.5875,193.925 15.3,194.5813 Q16.0125,195.2375 17.2875,195.2375 Q18.0375,195.2375 18.5625,195.0375 Q18.875,194.9125 19.2125,194.5625 Q19.425,194.35 19.5438,194.2875 Q19.6625,194.225 19.825,194.225 Q20.0875,194.225 20.2938,194.4313 Q20.5,194.6375 20.5,194.9125 Q20.5,195.1875 20.225,195.5125 Q19.825,195.975 19.1875,196.2375 Q18.325,196.6 17.2875,196.6 Q16.075,196.6 15.1125,196.1 Q14.325,195.7 13.775,194.8438 Q13.225,193.9875 13.225,192.9625 L13.225,192.0375 Q13.225,190.975 13.7188,190.0563 Q14.2125,189.1375 15.0875,188.6438 Q15.9625,188.15 16.95,188.15 Q17.5375,188.15 18.0563,188.2813 Q18.575,188.4125 19.0125,188.7 Z "/><text fill="#000000" font-family="sans-serif" font-size="9.6" lengthAdjust="spacingAndGlyphs" textLength="57.6" x="28" y="195.7875">TextTrackList</text><line style="stroke: #A80036; stroke-width: 1.2000000178813934;" x1="5.6" x2="87.2" y1="204.8" y2="204.8"/><line style="stroke: #A80036; stroke-width: 1.2000000178813934;" x1="5.6" x2="87.2" y1="211.2" y2="211.2"/><rect fill="#FEFECE" filter="url(#f1)" height="38.4" style="stroke: #A80036; stroke-width: 1.2000000178813934;" width="90.4" x="116.4" y="179.2"/><ellipse cx="128.4" cy="192" fill="#ADD1B2" rx="8.8" ry="8.8" style="stroke: #A80036; stroke-width: 0.800000011920929;"/><path d="M130.6125,188.7 Q130.7375,188.525 130.8875,188.4375 Q131.0375,188.35 131.2125,188.35 Q131.5125,188.35 131.7,188.5563 Q131.8875,188.7625 131.8875,189.25 L131.8875,190.4125 Q131.8875,190.9 131.7,191.1125 Q131.5125,191.325 131.2125,191.325 Q130.9375,191.325 130.775,191.1625 Q130.6125,191.0125 130.525,190.6 Q130.4875,190.3125 130.3375,190.1625 Q130.075,189.8625 129.5875,189.6875 Q129.1,189.5125 128.6,189.5125 Q127.9875,189.5125 127.4813,189.775 Q126.975,190.0375 126.5813,190.6375 Q126.1875,191.2375 126.1875,192.0625 L126.1875,192.9375 Q126.1875,193.925 126.9,194.5813 Q127.6125,195.2375 128.8875,195.2375 Q129.6375,195.2375 130.1625,195.0375 Q130.475,194.9125 130.8125,194.5625 Q131.025,194.35 131.1438,194.2875 Q131.2625,194.225 131.425,194.225 Q131.6875,194.225 131.8938,194.4313 Q132.1,194.6375 132.1,194.9125 Q132.1,195.1875 131.825,195.5125 Q131.425,195.975 130.7875,196.2375 Q129.925,196.6 128.8875,196.6 Q127.675,196.6 126.7125,196.1 Q125.925,195.7 125.375,194.8438 Q124.825,193.9875 124.825,192.9625 L124.825,192.0375 Q124.825,190.975 125.3188,190.0563 Q125.8125,189.1375 126.6875,188.6438 Q127.5625,188.15 128.55,188.15 Q129.1375,188.15 129.6563,188.2813 Q130.175,188.4125 130.6125,188.7 Z "/><text fill="#000000" font-family="sans-serif" font-size="9.6" lengthAdjust="spacingAndGlyphs" textLength="64.8" x="139.6" y="195.7875">VideoTrackList</text><line style="stroke: #A80036; stroke-width: 1.2000000178813934;" x1="117.2" x2="206" y1="204.8" y2="204.8"/><line style="stroke: #A80036; stroke-width: 1.2000000178813934;" x1="117.2" x2="206" y1="211.2" y2="211.2"/><rect fill="#FEFECE" filter="url(#f1)" height="38.4" style="stroke: #A80036; stroke-width: 1.2000000178813934;" width="90.4" x="234.8" y="179.2"/><ellipse cx="246.8" cy="192" fill="#ADD1B2" rx="8.8" ry="8.8" style="stroke: #A80036; stroke-width: 0.800000011920929;"/><path d="M249.0125,188.7 Q249.1375,188.525 249.2875,188.4375 Q249.4375,188.35 249.6125,188.35 Q249.9125,188.35 250.1,188.5563 Q250.2875,188.7625 250.2875,189.25 L250.2875,190.4125 Q250.2875,190.9 250.1,191.1125 Q249.9125,191.325 249.6125,191.325 Q249.3375,191.325 249.175,191.1625 Q249.0125,191.0125 248.925,190.6 Q248.8875,190.3125 248.7375,190.1625 Q248.475,189.8625 247.9875,189.6875 Q247.5,189.5125 247,189.5125 Q246.3875,189.5125 245.8813,189.775 Q245.375,190.0375 244.9813,190.6375 Q244.5875,191.2375 244.5875,192.0625 L244.5875,192.9375 Q244.5875,193.925 245.3,194.5813 Q246.0125,195.2375 247.2875,195.2375 Q248.0375,195.2375 248.5625,195.0375 Q248.875,194.9125 249.2125,194.5625 Q249.425,194.35 249.5438,194.2875 Q249.6625,194.225 249.825,194.225 Q250.0875,194.225 250.2938,194.4313 Q250.5,194.6375 250.5,194.9125 Q250.5,195.1875 250.225,195.5125 Q249.825,195.975 249.1875,196.2375 Q248.325,196.6 247.2875,196.6 Q246.075,196.6 245.1125,196.1 Q244.325,195.7 243.775,194.8438 Q243.225,193.9875 243.225,192.9625 L243.225,192.0375 Q243.225,190.975 243.7188,190.0563 Q244.2125,189.1375 245.0875,188.6438 Q245.9625,188.15 246.95,188.15 Q247.5375,188.15 248.0563,188.2813 Q248.575,188.4125 249.0125,188.7 Z "/><text fill="#000000" font-family="sans-serif" font-size="9.6" lengthAdjust="spacingAndGlyphs" textLength="64.8" x="258" y="195.7875">AudioTrackList</text><line style="stroke: #A80036; stroke-width: 1.2000000178813934;" x1="235.6" x2="324.4" y1="204.8" y2="204.8"/><line style="stroke: #A80036; stroke-width: 1.2000000178813934;" x1="235.6" x2="324.4" y1="211.2" y2="211.2"/><rect fill="#FEFECE" filter="url(#f1)" height="38.4" style="stroke: #A80036; stroke-width: 1.2000000178813934;" width="49.6" x="416.8" y="92.8"/><ellipse cx="428.8" cy="105.6" fill="#ADD1B2" rx="8.8" ry="8.8" style="stroke: #A80036; stroke-width: 0.800000011920929;"/><path d="M431.0125,102.3 Q431.1375,102.125 431.2875,102.0375 Q431.4375,101.95 431.6125,101.95 Q431.9125,101.95 432.1,102.1563 Q432.2875,102.3625 432.2875,102.85 L432.2875,104.0125 Q432.2875,104.5 432.1,104.7125 Q431.9125,104.925 431.6125,104.925 Q431.3375,104.925 431.175,104.7625 Q431.0125,104.6125 430.925,104.2 Q430.8875,103.9125 430.7375,103.7625 Q430.475,103.4625 429.9875,103.2875 Q429.5,103.1125 429,103.1125 Q428.3875,103.1125 427.8813,103.375 Q427.375,103.6375 426.9813,104.2375 Q426.5875,104.8375 426.5875,105.6625 L426.5875,106.5375 Q426.5875,107.525 427.3,108.1813 Q428.0125,108.8375 429.2875,108.8375 Q430.0375,108.8375 430.5625,108.6375 Q430.875,108.5125 431.2125,108.1625 Q431.425,107.95 431.5438,107.8875 Q431.6625,107.825 431.825,107.825 Q432.0875,107.825 432.2938,108.0313 Q432.5,108.2375 432.5,108.5125 Q432.5,108.7875 432.225,109.1125 Q431.825,109.575 431.1875,109.8375 Q430.325,110.2 429.2875,110.2 Q428.075,110.2 427.1125,109.7 Q426.325,109.3 425.775,108.4438 Q425.225,107.5875 425.225,106.5625 L425.225,105.6375 Q425.225,104.575 425.7188,103.6563 Q426.2125,102.7375 427.0875,102.2438 Q427.9625,101.75 428.95,101.75 Q429.5375,101.75 430.0563,101.8813 Q430.575,102.0125 431.0125,102.3 Z "/><text fill="#000000" font-family="sans-serif" font-size="9.6" lengthAdjust="spacingAndGlyphs" textLength="24" x="440" y="109.3875">Track</text><line style="stroke: #A80036; stroke-width: 1.2000000178813934;" x1="417.6" x2="465.6" y1="118.4" y2="118.4"/><line style="stroke: #A80036; stroke-width: 1.2000000178813934;" x1="417.6" x2="465.6" y1="124.8" y2="124.8"/><rect fill="#FEFECE" filter="url(#f1)" height="38.4" style="stroke: #A80036; stroke-width: 1.2000000178813934;" width="74.4" x="353.2" y="179.2"/><ellipse cx="365.2" cy="192" fill="#ADD1B2" rx="8.8" ry="8.8" style="stroke: #A80036; stroke-width: 0.800000011920929;"/><path d="M367.4125,188.7 Q367.5375,188.525 367.6875,188.4375 Q367.8375,188.35 368.0125,188.35 Q368.3125,188.35 368.5,188.5563 Q368.6875,188.7625 368.6875,189.25 L368.6875,190.4125 Q368.6875,190.9 368.5,191.1125 Q368.3125,191.325 368.0125,191.325 Q367.7375,191.325 367.575,191.1625 Q367.4125,191.0125 367.325,190.6 Q367.2875,190.3125 367.1375,190.1625 Q366.875,189.8625 366.3875,189.6875 Q365.9,189.5125 365.4,189.5125 Q364.7875,189.5125 364.2813,189.775 Q363.775,190.0375 363.3813,190.6375 Q362.9875,191.2375 362.9875,192.0625 L362.9875,192.9375 Q362.9875,193.925 363.7,194.5813 Q364.4125,195.2375 365.6875,195.2375 Q366.4375,195.2375 366.9625,195.0375 Q367.275,194.9125 367.6125,194.5625 Q367.825,194.35 367.9438,194.2875 Q368.0625,194.225 368.225,194.225 Q368.4875,194.225 368.6938,194.4313 Q368.9,194.6375 368.9,194.9125 Q368.9,195.1875 368.625,195.5125 Q368.225,195.975 367.5875,196.2375 Q366.725,196.6 365.6875,196.6 Q364.475,196.6 363.5125,196.1 Q362.725,195.7 362.175,194.8438 Q361.625,193.9875 361.625,192.9625 L361.625,192.0375 Q361.625,190.975 362.1188,190.0563 Q362.6125,189.1375 363.4875,188.6438 Q364.3625,188.15 365.35,188.15 Q365.9375,188.15 366.4563,188.2813 Q366.975,188.4125 367.4125,188.7 Z "/><text fill="#000000" font-family="sans-serif" font-size="9.6" lengthAdjust="spacingAndGlyphs" textLength="48.8" x="376.4" y="195.7875">AudioTrack</text><line style="stroke: #A80036; stroke-width: 1.2000000178813934;" x1="354" x2="426.8" y1="204.8" y2="204.8"/><line style="stroke: #A80036; stroke-width: 1.2000000178813934;" x1="354" x2="426.8" y1="211.2" y2="211.2"/><rect fill="#FEFECE" filter="url(#f1)" height="38.4" style="stroke: #A80036; stroke-width: 1.2000000178813934;" width="74.4" x="455.6" y="179.2"/><ellipse cx="467.6" cy="192" fill="#ADD1B2" rx="8.8" ry="8.8" style="stroke: #A80036; stroke-width: 0.800000011920929;"/><path d="M469.8125,188.7 Q469.9375,188.525 470.0875,188.4375 Q470.2375,188.35 470.4125,188.35 Q470.7125,188.35 470.9,188.5563 Q471.0875,188.7625 471.0875,189.25 L471.0875,190.4125 Q471.0875,190.9 470.9,191.1125 Q470.7125,191.325 470.4125,191.325 Q470.1375,191.325 469.975,191.1625 Q469.8125,191.0125 469.725,190.6 Q469.6875,190.3125 469.5375,190.1625 Q469.275,189.8625 468.7875,189.6875 Q468.3,189.5125 467.8,189.5125 Q467.1875,189.5125 466.6813,189.775 Q466.175,190.0375 465.7813,190.6375 Q465.3875,191.2375 465.3875,192.0625 L465.3875,192.9375 Q465.3875,193.925 466.1,194.5813 Q466.8125,195.2375 468.0875,195.2375 Q468.8375,195.2375 469.3625,195.0375 Q469.675,194.9125 470.0125,194.5625 Q470.225,194.35 470.3438,194.2875 Q470.4625,194.225 470.625,194.225 Q470.8875,194.225 471.0938,194.4313 Q471.3,194.6375 471.3,194.9125 Q471.3,195.1875 471.025,195.5125 Q470.625,195.975 469.9875,196.2375 Q469.125,196.6 468.0875,196.6 Q466.875,196.6 465.9125,196.1 Q465.125,195.7 464.575,194.8438 Q464.025,193.9875 464.025,192.9625 L464.025,192.0375 Q464.025,190.975 464.5188,190.0563 Q465.0125,189.1375 465.8875,188.6438 Q466.7625,188.15 467.75,188.15 Q468.3375,188.15 468.8563,188.2813 Q469.375,188.4125 469.8125,188.7 Z "/><text fill="#000000" font-family="sans-serif" font-size="9.6" lengthAdjust="spacingAndGlyphs" textLength="48.8" x="478.8" y="195.7875">VideoTrack</text><line style="stroke: #A80036; stroke-width: 1.2000000178813934;" x1="456.4" x2="529.2" y1="204.8" y2="204.8"/><line style="stroke: #A80036; stroke-width: 1.2000000178813934;" x1="456.4" x2="529.2" y1="211.2" y2="211.2"/><rect fill="#FEFECE" filter="url(#f1)" height="38.4" style="stroke: #A80036; stroke-width: 1.2000000178813934;" width="67.2" x="558.4" y="179.2"/><ellipse cx="570.4" cy="192" fill="#ADD1B2" rx="8.8" ry="8.8" style="stroke: #A80036; stroke-width: 0.800000011920929;"/><path d="M572.6125,188.7 Q572.7375,188.525 572.8875,188.4375 Q573.0375,188.35 573.2125,188.35 Q573.5125,188.35 573.7,188.5563 Q573.8875,188.7625 573.8875,189.25 L573.8875,190.4125 Q573.8875,190.9 573.7,191.1125 Q573.5125,191.325 573.2125,191.325 Q572.9375,191.325 572.775,191.1625 Q572.6125,191.0125 572.525,190.6 Q572.4875,190.3125 572.3375,190.1625 Q572.075,189.8625 571.5875,189.6875 Q571.1,189.5125 570.6,189.5125 Q569.9875,189.5125 569.4813,189.775 Q568.975,190.0375 568.5813,190.6375 Q568.1875,191.2375 568.1875,192.0625 L568.1875,192.9375 Q568.1875,193.925 568.9,194.5813 Q569.6125,195.2375 570.8875,195.2375 Q571.6375,195.2375 572.1625,195.0375 Q572.475,194.9125 572.8125,194.5625 Q573.025,194.35 573.1438,194.2875 Q573.2625,194.225 573.425,194.225 Q573.6875,194.225 573.8938,194.4313 Q574.1,194.6375 574.1,194.9125 Q574.1,195.1875 573.825,195.5125 Q573.425,195.975 572.7875,196.2375 Q571.925,196.6 570.8875,196.6 Q569.675,196.6 568.7125,196.1 Q567.925,195.7 567.375,194.8438 Q566.825,193.9875 566.825,192.9625 L566.825,192.0375 Q566.825,190.975 567.3188,190.0563 Q567.8125,189.1375 568.6875,188.6438 Q569.5625,188.15 570.55,188.15 Q571.1375,188.15 571.6563,188.2813 Q572.175,188.4125 572.6125,188.7 Z "/><text fill="#000000" font-family="sans-serif" font-size="9.6" lengthAdjust="spacingAndGlyphs" textLength="41.6" x="581.6" y="195.7875">TextTrack</text><line style="stroke: #A80036; stroke-width: 1.2000000178813934;" x1="559.2" x2="624.8" y1="204.8" y2="204.8"/><line style="stroke: #A80036; stroke-width: 1.2000000178813934;" x1="559.2" x2="624.8" y1="211.2" y2="211.2"/><path d="M182.2576,54.3832 C164.92,66.9704 144.9312,81.4824 129.496,92.6896 " fill="none" style="stroke: #A80036; stroke-width: 0.800000011920929;"/><polygon fill="none" points="179.2184,49.6688,195.456,44.8,185.7984,58.732,179.2184,49.6688" style="stroke: #A80036; stroke-width: 0.800000011920929;"/><path d="M220.8,60.8192 C220.8,71.6632 220.8,83.2304 220.8,92.5424 " fill="none" style="stroke: #A80036; stroke-width: 0.800000011920929;"/><polygon fill="none" points="215.2,60.8,220.8,44.8,226.4,60.8,215.2,60.8" style="stroke: #A80036; stroke-width: 0.800000011920929;"/><path d="M173.3064,135.8936 C145.4088,149.4582 110.6168,166.3752 84.5213,179.064 " fill="none" style="stroke: #A80036; stroke-width: 0.800000011920929;"/><polygon fill="none" points="171.1584,130.7104,187.9968,128.7504,176.056,140.783,171.1584,130.7104" style="stroke: #A80036; stroke-width: 0.800000011920929;"/><path d="M198.6528,144.5246 C190.5576,156.1198 181.668,168.8545 174.6248,178.9427 " fill="none" style="stroke: #A80036; stroke-width: 0.800000011920929;"/><polygon fill="none" points="194.204,141.1141,207.9544,131.2,203.3872,147.5253,194.204,141.1141" style="stroke: #A80036; stroke-width: 0.800000011920929;"/><path d="M242.9472,144.5246 C251.0424,156.1198 259.932,168.8545 266.9752,178.9427 " fill="none" style="stroke: #A80036; stroke-width: 0.800000011920929;"/><polygon fill="none" points="238.2128,147.5253,233.6456,131.2,247.396,141.1141,238.2128,147.5253" style="stroke: #A80036; stroke-width: 0.800000011920929;"/><path d="M274.968,47.204 C320.1792,64.5672 382.5552,88.5232 416.7288,101.648 " fill="none" style="stroke: #A80036; stroke-width: 0.800000011920929;"/><polygon fill="none" points="272.6952,52.3296,259.7664,41.3656,276.7104,41.8744,272.6952,52.3296" style="stroke: #A80036; stroke-width: 0.800000011920929;"/><path d="M422.2144,144.9072 C415.276,156.3994 407.6888,168.9653 401.6648,178.9427 " fill="none" style="stroke: #A80036; stroke-width: 0.800000011920929;"/><polygon fill="none" points="417.4264,142.0029,430.4904,131.2,427.0144,147.7918,417.4264,142.0029" style="stroke: #A80036; stroke-width: 0.800000011920929;"/><path d="M460.9856,144.9072 C467.924,156.3994 475.5112,168.9653 481.5352,178.9427 " fill="none" style="stroke: #A80036; stroke-width: 0.800000011920929;"/><polygon fill="none" points="456.1856,147.7918,452.7096,131.2,465.7736,142.0029,456.1856,147.7918" style="stroke: #A80036; stroke-width: 0.800000011920929;"/><path d="M480.6368,134.8104 C505.0384,148.5685 536.108,166.0865 559.2264,179.1212 " fill="none" style="stroke: #A80036; stroke-width: 0.800000011920929;"/><polygon fill="none" points="477.6224,139.5394,466.4352,126.8032,483.1232,129.7832,477.6224,139.5394" style="stroke: #A80036; stroke-width: 0.800000011920929;"/></g></svg>